<mxfile host="65bd71144e">
    <diagram id="IgOzDwhm6giHZ47MWjrt" name="ページ1">
        <mxGraphModel dx="2712" dy="3486" grid="1" gridSize="10" guides="1" tooltips="1" connect="1" arrows="1" fold="1" page="1" pageScale="1" pageWidth="827" pageHeight="1169" math="0" shadow="0">
            <root>
                <mxCell id="0"/>
                <mxCell id="1" parent="0"/>
                <mxCell id="2" value="LocalBA" style="shape=process;whiteSpace=wrap;html=1;backgroundOutline=1;" vertex="1" parent="1">
                    <mxGeometry x="519" y="2200" width="240" height="240" as="geometry"/>
                </mxCell>
                <mxCell id="3" value="c_isInertial" style="text;html=1;align=center;verticalAlign=middle;resizable=0;points=[];autosize=1;strokeColor=none;fillColor=none;" vertex="1" parent="1">
                    <mxGeometry x="429" y="2290" width="80" height="30" as="geometry"/>
                </mxCell>
                <mxCell id="4" value="c_tracker" style="text;html=1;align=center;verticalAlign=middle;resizable=0;points=[];autosize=1;strokeColor=none;fillColor=none;" vertex="1" parent="1">
                    <mxGeometry x="439" y="2250" width="70" height="30" as="geometry"/>
                </mxCell>
                <mxCell id="5" value="s_currentKF" style="text;html=1;align=center;verticalAlign=middle;resizable=0;points=[];autosize=1;strokeColor=none;fillColor=none;" vertex="1" parent="1">
                    <mxGeometry x="429" y="2210" width="90" height="30" as="geometry"/>
                </mxCell>
                <mxCell id="6" value="c_isMonocular" style="text;html=1;align=center;verticalAlign=middle;resizable=0;points=[];autosize=1;strokeColor=none;fillColor=none;" vertex="1" parent="1">
                    <mxGeometry x="419" y="2330" width="100" height="30" as="geometry"/>
                </mxCell>
                <mxCell id="7" value="s_badIMU" style="text;html=1;align=center;verticalAlign=middle;resizable=0;points=[];autosize=1;strokeColor=none;fillColor=none;" vertex="1" parent="1">
                    <mxGeometry x="750" y="2290" width="80" height="30" as="geometry"/>
                </mxCell>
                <mxCell id="8" value="" style="edgeStyle=none;orthogonalLoop=1;jettySize=auto;html=1;jumpStyle=arc;" edge="1" parent="1" source="2" target="9">
                    <mxGeometry width="100" relative="1" as="geometry">
                        <mxPoint x="759.0000000000001" y="2310" as="sourcePoint"/>
                        <mxPoint x="920" y="2320" as="targetPoint"/>
                        <Array as="points"/>
                    </mxGeometry>
                </mxCell>
                <mxCell id="9" value="map_to&lt;br&gt;true" style="shape=offPageConnector;whiteSpace=wrap;html=1;direction=north;" vertex="1" parent="1">
                    <mxGeometry x="920" y="2280" width="80" height="80" as="geometry"/>
                </mxCell>
                <mxCell id="10" value="map_to&lt;br&gt;false" style="shape=offPageConnector;whiteSpace=wrap;html=1;direction=north;" vertex="1" parent="1">
                    <mxGeometry x="920" y="2200" width="80" height="80" as="geometry"/>
                </mxCell>
                <mxCell id="11" value="or_else" style="shape=trapezoid;perimeter=trapezoidPerimeter;whiteSpace=wrap;html=1;fixedSize=1;direction=south;" vertex="1" parent="1">
                    <mxGeometry x="1080" y="2218" width="40" height="120" as="geometry"/>
                </mxCell>
                <mxCell id="12" value="" style="edgeStyle=none;orthogonalLoop=1;jettySize=auto;html=1;jumpStyle=arc;entryX=0.185;entryY=1.042;entryDx=0;entryDy=0;entryPerimeter=0;" edge="1" parent="1" source="10" target="11">
                    <mxGeometry width="100" relative="1" as="geometry">
                        <mxPoint x="930.8399999999999" y="2440" as="sourcePoint"/>
                        <mxPoint x="1119.9999999999995" y="2441.76" as="targetPoint"/>
                        <Array as="points"/>
                    </mxGeometry>
                </mxCell>
                <mxCell id="13" value="" style="edgeStyle=none;orthogonalLoop=1;jettySize=auto;html=1;jumpStyle=arc;entryX=0.852;entryY=1.006;entryDx=0;entryDy=0;entryPerimeter=0;" edge="1" parent="1" source="9" target="11">
                    <mxGeometry width="100" relative="1" as="geometry">
                        <mxPoint x="1010" y="2260.857142857143" as="sourcePoint"/>
                        <mxPoint x="1090" y="2282.5714285714284" as="targetPoint"/>
                        <Array as="points"/>
                    </mxGeometry>
                </mxCell>
                <mxCell id="14" value="" style="edgeStyle=none;orthogonalLoop=1;jettySize=auto;html=1;jumpStyle=arc;entryX=0.185;entryY=1.042;entryDx=0;entryDy=0;entryPerimeter=0;" edge="1" parent="1">
                    <mxGeometry width="100" relative="1" as="geometry">
                        <mxPoint x="1120" y="2279.997613252197" as="sourcePoint"/>
                        <mxPoint x="1198.3200000000002" y="2280.13" as="targetPoint"/>
                        <Array as="points"/>
                    </mxGeometry>
                </mxCell>
                <mxCell id="15" value="hold&lt;br&gt;false" style="rounded=1;whiteSpace=wrap;html=1;" vertex="1" parent="1">
                    <mxGeometry x="1200" y="2250" width="120" height="60" as="geometry"/>
                </mxCell>
                <mxCell id="16" value="" style="edgeStyle=none;orthogonalLoop=1;jettySize=auto;html=1;endArrow=diamondThin;endFill=0;endSize=12;jumpStyle=arc;" edge="1" parent="1" source="15">
                    <mxGeometry width="100" relative="1" as="geometry">
                        <mxPoint x="1440" y="2337" as="sourcePoint"/>
                        <mxPoint x="3200" y="2280" as="targetPoint"/>
                        <Array as="points"/>
                    </mxGeometry>
                </mxCell>
                <mxCell id="17" value="c_isBadIMU" style="text;html=1;align=center;verticalAlign=middle;resizable=0;points=[];autosize=1;strokeColor=none;fillColor=none;" vertex="1" parent="1">
                    <mxGeometry x="1330" y="2250" width="90" height="30" as="geometry"/>
                </mxCell>
                <mxCell id="18" value="filter" style="rhombus;whiteSpace=wrap;html=1;" vertex="1" parent="1">
                    <mxGeometry x="359" y="2220" width="80" height="40" as="geometry"/>
                </mxCell>
                <mxCell id="19" value="" style="edgeStyle=none;orthogonalLoop=1;jettySize=auto;html=1;jumpStyle=arc;entryX=-0.002;entryY=0.168;entryDx=0;entryDy=0;entryPerimeter=0;" edge="1" parent="1" source="18" target="2">
                    <mxGeometry width="100" relative="1" as="geometry">
                        <mxPoint x="259.9999999999999" y="2410" as="sourcePoint"/>
                        <mxPoint x="449.15999999999974" y="2411.76" as="targetPoint"/>
                        <Array as="points"/>
                    </mxGeometry>
                </mxCell>
                <mxCell id="20" value="" style="edgeStyle=none;orthogonalLoop=1;jettySize=auto;html=1;jumpStyle=arc;" edge="1" parent="1">
                    <mxGeometry width="100" relative="1" as="geometry">
                        <mxPoint x="760" y="2360" as="sourcePoint"/>
                        <mxPoint x="920" y="2560" as="targetPoint"/>
                        <Array as="points">
                            <mxPoint x="800" y="2360"/>
                            <mxPoint x="800" y="2560"/>
                        </Array>
                    </mxGeometry>
                </mxCell>
                <mxCell id="21" value="sync" style="shape=trapezoid;perimeter=trapezoidPerimeter;whiteSpace=wrap;html=1;fixedSize=1;direction=south;" vertex="1" parent="1">
                    <mxGeometry x="920" y="2480" width="40" height="120" as="geometry"/>
                </mxCell>
                <mxCell id="22" value="" style="edgeStyle=none;orthogonalLoop=1;jettySize=auto;html=1;jumpStyle=arc;" edge="1" parent="1" source="21">
                    <mxGeometry width="100" relative="1" as="geometry">
                        <mxPoint x="1030" y="2550" as="sourcePoint"/>
                        <mxPoint x="1040" y="2540" as="targetPoint"/>
                        <Array as="points"/>
                    </mxGeometry>
                </mxCell>
                <mxCell id="23" value="InitializeIMU1" style="shape=process;whiteSpace=wrap;html=1;backgroundOutline=1;" vertex="1" parent="1">
                    <mxGeometry x="1270" y="2480" width="240" height="360" as="geometry"/>
                </mxCell>
                <mxCell id="24" value="filter" style="rhombus;whiteSpace=wrap;html=1;" vertex="1" parent="1">
                    <mxGeometry x="1121" y="2520" width="80" height="40" as="geometry"/>
                </mxCell>
                <mxCell id="25" value="" style="edgeStyle=none;orthogonalLoop=1;jettySize=auto;html=1;jumpStyle=arc;entryX=-0.01;entryY=0.166;entryDx=0;entryDy=0;entryPerimeter=0;" edge="1" parent="1" source="24" target="23">
                    <mxGeometry width="100" relative="1" as="geometry">
                        <mxPoint x="1121" y="2539.63" as="sourcePoint"/>
                        <mxPoint x="1201" y="2539.63" as="targetPoint"/>
                        <Array as="points"/>
                    </mxGeometry>
                </mxCell>
                <mxCell id="26" value="s_currentKF" style="text;html=1;align=center;verticalAlign=middle;resizable=0;points=[];autosize=1;strokeColor=none;fillColor=none;" vertex="1" parent="1">
                    <mxGeometry x="1180" y="2490" width="90" height="30" as="geometry"/>
                </mxCell>
                <mxCell id="27" value="" style="edgeStyle=none;orthogonalLoop=1;jettySize=auto;html=1;endArrow=diamondThin;endFill=0;endSize=12;jumpStyle=arc;entryX=0;entryY=0.544;entryDx=0;entryDy=0;entryPerimeter=0;" edge="1" parent="1" target="23">
                    <mxGeometry width="100" relative="1" as="geometry">
                        <mxPoint x="-160" y="2680" as="sourcePoint"/>
                        <mxPoint x="1160" y="2600" as="targetPoint"/>
                        <Array as="points">
                            <mxPoint x="80" y="2680"/>
                        </Array>
                    </mxGeometry>
                </mxCell>
                <mxCell id="28" value="c_isMonocular" style="text;html=1;align=center;verticalAlign=middle;resizable=0;points=[];autosize=1;strokeColor=none;fillColor=none;" vertex="1" parent="1">
                    <mxGeometry x="1160" y="2640" width="100" height="30" as="geometry"/>
                </mxCell>
                <mxCell id="29" value="" style="edgeStyle=none;orthogonalLoop=1;jettySize=auto;html=1;exitX=0.999;exitY=0.326;exitDx=0;exitDy=0;exitPerimeter=0;jumpStyle=arc;" edge="1" parent="1" target="31">
                    <mxGeometry width="100" relative="1" as="geometry">
                        <mxPoint x="-239.99999999999977" y="2755" as="sourcePoint"/>
                        <mxPoint x="-50.84" y="2756.76" as="targetPoint"/>
                        <Array as="points"/>
                    </mxGeometry>
                </mxCell>
                <mxCell id="30" value="s_changeFirstTs" style="text;html=1;align=center;verticalAlign=middle;resizable=0;points=[];autosize=1;strokeColor=none;fillColor=none;" vertex="1" parent="1">
                    <mxGeometry x="-360" y="2740" width="110" height="30" as="geometry"/>
                </mxCell>
                <mxCell id="31" value="hold&lt;br&gt;0.0" style="rounded=1;whiteSpace=wrap;html=1;" vertex="1" parent="1">
                    <mxGeometry x="-40" y="2725" width="120" height="60" as="geometry"/>
                </mxCell>
                <mxCell id="32" value="" style="edgeStyle=none;orthogonalLoop=1;jettySize=auto;html=1;endArrow=diamondThin;endFill=0;endSize=12;jumpStyle=arc;entryX=-0.007;entryY=0.777;entryDx=0;entryDy=0;entryPerimeter=0;" edge="1" parent="1" source="31" target="23">
                    <mxGeometry width="100" relative="1" as="geometry">
                        <mxPoint x="80" y="2805.91" as="sourcePoint"/>
                        <mxPoint x="280" y="2800" as="targetPoint"/>
                        <Array as="points"/>
                    </mxGeometry>
                </mxCell>
                <mxCell id="33" value="c_firstTs" style="text;html=1;align=center;verticalAlign=middle;resizable=0;points=[];autosize=1;strokeColor=none;fillColor=none;" vertex="1" parent="1">
                    <mxGeometry x="1190" y="2725" width="70" height="30" as="geometry"/>
                </mxCell>
                <mxCell id="34" value="" style="edgeStyle=none;orthogonalLoop=1;jettySize=auto;html=1;jumpStyle=arc;" edge="1" parent="1">
                    <mxGeometry width="100" relative="1" as="geometry">
                        <mxPoint x="960" y="2540" as="sourcePoint"/>
                        <mxPoint x="1640" y="2600" as="targetPoint"/>
                        <Array as="points">
                            <mxPoint x="1000" y="2540"/>
                            <mxPoint x="1000" y="2400"/>
                            <mxPoint x="1560" y="2400"/>
                            <mxPoint x="1560" y="2600"/>
                        </Array>
                    </mxGeometry>
                </mxCell>
                <mxCell id="35" value="s_currentKF" style="text;html=1;align=center;verticalAlign=middle;resizable=0;points=[];autosize=1;strokeColor=none;fillColor=none;" vertex="1" parent="1">
                    <mxGeometry x="1550" y="2570" width="90" height="30" as="geometry"/>
                </mxCell>
                <mxCell id="36" value="" style="edgeStyle=none;orthogonalLoop=1;jettySize=auto;html=1;jumpStyle=arc;" edge="1" parent="1" source="23">
                    <mxGeometry width="100" relative="1" as="geometry">
                        <mxPoint x="1440" y="2530" as="sourcePoint"/>
                        <mxPoint x="1640" y="2660" as="targetPoint"/>
                        <Array as="points"/>
                    </mxGeometry>
                </mxCell>
                <mxCell id="37" value="sync" style="shape=trapezoid;perimeter=trapezoidPerimeter;whiteSpace=wrap;html=1;fixedSize=1;direction=south;" vertex="1" parent="1">
                    <mxGeometry x="1640" y="2560" width="40" height="120" as="geometry"/>
                </mxCell>
                <mxCell id="38" value="" style="edgeStyle=none;orthogonalLoop=1;jettySize=auto;html=1;jumpStyle=arc;" edge="1" parent="1" source="37">
                    <mxGeometry width="100" relative="1" as="geometry">
                        <mxPoint x="1710" y="2630" as="sourcePoint"/>
                        <mxPoint x="1800" y="2620" as="targetPoint"/>
                        <Array as="points"/>
                    </mxGeometry>
                </mxCell>
                <mxCell id="39" value="s_currentKF" style="text;html=1;align=center;verticalAlign=middle;resizable=0;points=[];autosize=1;strokeColor=none;fillColor=none;" vertex="1" parent="1">
                    <mxGeometry x="1510" y="2630" width="90" height="30" as="geometry"/>
                </mxCell>
                <mxCell id="40" value="s_currentKF" style="text;html=1;align=center;verticalAlign=middle;resizable=0;points=[];autosize=1;strokeColor=none;fillColor=none;" vertex="1" parent="1">
                    <mxGeometry x="1680" y="2590" width="90" height="30" as="geometry"/>
                </mxCell>
                <mxCell id="41" value="InitializeIMU2and3" style="shape=process;whiteSpace=wrap;html=1;backgroundOutline=1;" vertex="1" parent="1">
                    <mxGeometry x="2000" y="2520" width="240" height="360" as="geometry"/>
                </mxCell>
                <mxCell id="42" value="c_tracker" style="text;html=1;align=center;verticalAlign=middle;resizable=0;points=[];autosize=1;strokeColor=none;fillColor=none;" vertex="1" parent="1">
                    <mxGeometry x="1181" y="2605" width="70" height="30" as="geometry"/>
                </mxCell>
                <mxCell id="43" value="gate" style="rhombus;whiteSpace=wrap;html=1;" vertex="1" parent="1">
                    <mxGeometry x="1041" y="2520" width="80" height="40" as="geometry"/>
                </mxCell>
                <mxCell id="44" value="" style="edgeStyle=none;orthogonalLoop=1;jettySize=auto;html=1;endArrow=diamondThin;endFill=0;endSize=12;jumpStyle=arc;" edge="1" parent="1" target="43">
                    <mxGeometry width="100" relative="1" as="geometry">
                        <mxPoint x="-160" y="2600" as="sourcePoint"/>
                        <mxPoint x="680" y="2604.5" as="targetPoint"/>
                        <Array as="points">
                            <mxPoint x="160" y="2600"/>
                            <mxPoint x="1080" y="2600"/>
                        </Array>
                    </mxGeometry>
                </mxCell>
                <mxCell id="45" value="c_atlas" style="text;html=1;align=center;verticalAlign=middle;resizable=0;points=[];autosize=1;strokeColor=none;fillColor=none;" vertex="1" parent="1">
                    <mxGeometry x="1190" y="2695" width="60" height="30" as="geometry"/>
                </mxCell>
                <mxCell id="46" value="" style="edgeStyle=none;orthogonalLoop=1;jettySize=auto;html=1;endArrow=diamondThin;endFill=0;endSize=12;jumpStyle=arc;entryX=0.5;entryY=1;entryDx=0;entryDy=0;" edge="1" parent="1" target="47">
                    <mxGeometry width="100" relative="1" as="geometry">
                        <mxPoint x="120" y="2600" as="sourcePoint"/>
                        <mxPoint x="1600" y="2920" as="targetPoint"/>
                        <Array as="points">
                            <mxPoint x="160" y="2600"/>
                            <mxPoint x="160" y="2920"/>
                            <mxPoint x="1840" y="2920"/>
                            <mxPoint x="1840" y="2680"/>
                        </Array>
                    </mxGeometry>
                </mxCell>
                <mxCell id="47" value="gate" style="rhombus;whiteSpace=wrap;html=1;" vertex="1" parent="1">
                    <mxGeometry x="1800" y="2600" width="80" height="40" as="geometry"/>
                </mxCell>
                <mxCell id="48" value="s_currentKF" style="text;html=1;align=center;verticalAlign=middle;resizable=0;points=[];autosize=1;strokeColor=none;fillColor=none;" vertex="1" parent="1">
                    <mxGeometry x="1910" y="2590" width="90" height="30" as="geometry"/>
                </mxCell>
                <mxCell id="49" value="" style="edgeStyle=none;orthogonalLoop=1;jettySize=auto;html=1;jumpStyle=arc;" edge="1" parent="1" source="47">
                    <mxGeometry width="100" relative="1" as="geometry">
                        <mxPoint x="1880" y="2620" as="sourcePoint"/>
                        <mxPoint x="2000" y="2620" as="targetPoint"/>
                        <Array as="points"/>
                    </mxGeometry>
                </mxCell>
                <mxCell id="50" value="c_isMonocular" style="text;html=1;align=center;verticalAlign=middle;resizable=0;points=[];autosize=1;strokeColor=none;fillColor=none;" vertex="1" parent="1">
                    <mxGeometry x="1900" y="2700" width="100" height="30" as="geometry"/>
                </mxCell>
                <mxCell id="51" value="c_firstTs" style="text;html=1;align=center;verticalAlign=middle;resizable=0;points=[];autosize=1;strokeColor=none;fillColor=none;" vertex="1" parent="1">
                    <mxGeometry x="1930" y="2785" width="70" height="30" as="geometry"/>
                </mxCell>
                <mxCell id="52" value="c_tracker" style="text;html=1;align=center;verticalAlign=middle;resizable=0;points=[];autosize=1;strokeColor=none;fillColor=none;" vertex="1" parent="1">
                    <mxGeometry x="1921" y="2665" width="70" height="30" as="geometry"/>
                </mxCell>
                <mxCell id="53" value="c_atlas" style="text;html=1;align=center;verticalAlign=middle;resizable=0;points=[];autosize=1;strokeColor=none;fillColor=none;" vertex="1" parent="1">
                    <mxGeometry x="1930" y="2755" width="60" height="30" as="geometry"/>
                </mxCell>
                <mxCell id="54" value="" style="edgeStyle=none;orthogonalLoop=1;jettySize=auto;html=1;jumpStyle=arc;" edge="1" parent="1" source="41">
                    <mxGeometry width="100" relative="1" as="geometry">
                        <mxPoint x="2320" y="2680" as="sourcePoint"/>
                        <mxPoint x="2400" y="2700" as="targetPoint"/>
                        <Array as="points"/>
                    </mxGeometry>
                </mxCell>
                <mxCell id="55" value="s_currentKF" style="text;html=1;align=center;verticalAlign=middle;resizable=0;points=[];autosize=1;strokeColor=none;fillColor=none;" vertex="1" parent="1">
                    <mxGeometry x="2250" y="2660" width="90" height="30" as="geometry"/>
                </mxCell>
                <mxCell id="56" value="" style="edgeStyle=none;orthogonalLoop=1;jettySize=auto;html=1;jumpStyle=arc;" edge="1" parent="1" source="37">
                    <mxGeometry width="100" relative="1" as="geometry">
                        <mxPoint x="1790" y="2490" as="sourcePoint"/>
                        <mxPoint x="2400" y="2640" as="targetPoint"/>
                        <Array as="points">
                            <mxPoint x="1760" y="2620"/>
                            <mxPoint x="1760" y="2480"/>
                            <mxPoint x="2320" y="2480"/>
                            <mxPoint x="2320" y="2640"/>
                        </Array>
                    </mxGeometry>
                </mxCell>
                <mxCell id="57" value="sync" style="shape=trapezoid;perimeter=trapezoidPerimeter;whiteSpace=wrap;html=1;fixedSize=1;direction=south;" vertex="1" parent="1">
                    <mxGeometry x="2400" y="2600" width="40" height="120" as="geometry"/>
                </mxCell>
                <mxCell id="58" value="ScaleRefinement" style="shape=process;whiteSpace=wrap;html=1;backgroundOutline=1;" vertex="1" parent="1">
                    <mxGeometry x="2720" y="2520" width="240" height="360" as="geometry"/>
                </mxCell>
                <mxCell id="59" value="filter" style="rhombus;whiteSpace=wrap;html=1;" vertex="1" parent="1">
                    <mxGeometry x="2600" y="2640" width="80" height="40" as="geometry"/>
                </mxCell>
                <mxCell id="60" value="" style="edgeStyle=none;orthogonalLoop=1;jettySize=auto;html=1;jumpStyle=arc;" edge="1" parent="1" source="57">
                    <mxGeometry width="100" relative="1" as="geometry">
                        <mxPoint x="2426.42" y="2980" as="sourcePoint"/>
                        <mxPoint x="2600" y="2660" as="targetPoint"/>
                        <Array as="points"/>
                    </mxGeometry>
                </mxCell>
                <mxCell id="61" value="" style="edgeStyle=none;orthogonalLoop=1;jettySize=auto;html=1;jumpStyle=arc;" edge="1" parent="1" source="59">
                    <mxGeometry width="100" relative="1" as="geometry">
                        <mxPoint x="2450" y="2680" as="sourcePoint"/>
                        <mxPoint x="2720" y="2660" as="targetPoint"/>
                        <Array as="points"/>
                    </mxGeometry>
                </mxCell>
                <mxCell id="62" value="c_isBadIMU" style="text;html=1;align=center;verticalAlign=middle;resizable=0;points=[];autosize=1;strokeColor=none;fillColor=none;" vertex="1" parent="1">
                    <mxGeometry x="3218" y="2260" width="90" height="30" as="geometry"/>
                </mxCell>
                <mxCell id="63" value="" style="edgeStyle=none;orthogonalLoop=1;jettySize=auto;html=1;jumpStyle=arc;" edge="1" parent="1">
                    <mxGeometry width="100" relative="1" as="geometry">
                        <mxPoint x="-130" y="2239" as="sourcePoint"/>
                        <mxPoint x="359" y="2239.37" as="targetPoint"/>
                        <Array as="points"/>
                    </mxGeometry>
                </mxCell>
                <mxCell id="64" value="" style="edgeStyle=none;orthogonalLoop=1;jettySize=auto;html=1;jumpStyle=arc;entryX=0.32;entryY=1.02;entryDx=0;entryDy=0;entryPerimeter=0;" edge="1" parent="1" target="21">
                    <mxGeometry width="100" relative="1" as="geometry">
                        <mxPoint x="-10" y="2239.33" as="sourcePoint"/>
                        <mxPoint x="690" y="2080" as="targetPoint"/>
                        <Array as="points">
                            <mxPoint x="240" y="2239"/>
                            <mxPoint x="240" y="2080"/>
                            <mxPoint x="840" y="2080"/>
                            <mxPoint x="840" y="2520"/>
                        </Array>
                    </mxGeometry>
                </mxCell>
                <mxCell id="65" value="" style="edgeStyle=none;orthogonalLoop=1;jettySize=auto;html=1;jumpStyle=arc;" edge="1" parent="1">
                    <mxGeometry width="100" relative="1" as="geometry">
                        <mxPoint x="2960" y="2656.67" as="sourcePoint"/>
                        <mxPoint x="3449" y="2657.04" as="targetPoint"/>
                        <Array as="points"/>
                    </mxGeometry>
                </mxCell>
            </root>
        </mxGraphModel>
    </diagram>
</mxfile>